{"title":"Flukt / Escape","uid":8180574,"size":1914358148,"categoryP":"video","categoryS":"movies","magnet":"?xt=urn:btih:f9780e52490757703d541018c038ca47e241ea25&amp;dn=Flukt+%2F+Escape&amp;tr=udp%3A%2F%2Ftracker.openbittorrent.com%3A80&amp;tr=udp%3A%2F%2Fopen.demonii.com%3A1337&amp;tr=udp%3A%2F%2Ftracker.coppersurfer.tk%3A6969&amp;tr=udp%3A%2F%2Fexodus.desync.com%3A6969","seeders":1,"leechers":0,"uploader":"yfjfrj","files":-1,"time":1361619588,"description":"Plot: It's been ten years since the Black Plague ravaged the lands. A poor family sets out on a journey to find a better place to live. On a desolate mountain pass, the family is attacked by a pack of merciless killers. The only one to be spared is 19 year old Signe, who is taken hostage and brought back to camp. There she learns she is to face a fate far worse than death, and she realizes the only thing to do is to run away. But her escape does not go unnoticed, and now the chase is on. \n\nMediaInfo 0.7.62\nGeneral\nComplete name                            : D:Pobeg.2012.L1.DVDRip.1400MBPobeg.2012.L1.DVDRip.1400MB.avi\nFormat                                   : AVI\nFormat/Info                              : Audio Video Interleave\nFile size                                : 1.37 GiB\nDuration                                 : 1h 18mn\nOverall bit rate                         : 2 495 Kbps\nWriting application                      : VirtualDubMod 1.5.10.2 (build 2540/release)\nWriting library                          : VirtualDubMod build 2540/release\n\nVideo\nID                                       : 0\nFormat                                   : MPEG-4 Visual\nFormat profile                           : Advanced Simple@L5\nFormat settings, BVOP                    : 1\nFormat settings, QPel                    : No\nFormat settings, GMC                     : No warppoints\nFormat settings, Matrix                  : Default (MPEG)\nMuxing mode                              : Packed bitstream\nCodec ID                                 : XVID\nCodec ID/Hint                            : XviD\nDuration                                 : 1h 18mn\nBit rate                                 : 2 037 Kbps\nWidth                                    : 704 pixels\nHeight                                   : 288 pixels\nDisplay aspect ratio                     : 2.40:1\nFrame rate                               : 25.000 fps\nColor space                              : YUV\nChroma subsampling                       : 4:2:0\nBit depth                                : 8 bits\nScan type                                : Progressive\nCompression mode                         : Lossy\nBits/(Pixel*Frame)                       : 0.402\nStream size                              : 1.12 GiB (82%)\nWriting library                          : XviD 1.2.1 (UTC 2008-12-04)\n\nAudio\nID                                       : 1\nFormat                                   : AC-3\nFormat/Info                              : Audio Coding 3\nMode extension                           : CM (complete main)\nFormat settings, Endianness              : Big\nCodec ID                                 : 2000\nDuration                                 : 1h 18mn\nBit rate mode                            : Constant\nBit rate                                 : 448 Kbps\nChannel(s)                               : 6 channels\nChannel positions                        : Front: L C R, Side: L R, LFE\nSampling rate                            : 48.0 KHz\nBit depth                                : 16 bits\nCompression mode                         : Lossy\nStream size                              : 251 MiB (18%)\nAlignment                                : Split accross interleaves\nInterleave, duration                     : 40 ms (1.00 video frame)\nInterleave, preload duration             : 500 ms\n\n","torrent":{"xt":"urn:btih:f9780e52490757703d541018c038ca47e241ea25","amp;dn":"Flukt+%2F+Escape","amp;tr":["udp%3A%2F%2Ftracker.openbittorrent.com%3A80","udp%3A%2F%2Fopen.demonii.com%3A1337","udp%3A%2F%2Ftracker.coppersurfer.tk%3A6969","udp%3A%2F%2Fexodus.desync.com%3A6969"],"infoHash":"f9780e52490757703d541018c038ca47e241ea25","infoHashBuffer":{"type":"Buffer","data":[249,120,14,82,73,7,87,112,61,84,16,24,192,56,202,71,226,65,234,37]},"announce":[],"urlList":[]}}